<?xml version="1.0" encoding="UTF-8" standalone="no"?>
<!-- Created with Inkscape (http://www.inkscape.org/) -->

<svg
   xmlns:dc="http://purl.org/dc/elements/1.1/"
   xmlns:cc="http://creativecommons.org/ns#"
   xmlns:rdf="http://www.w3.org/1999/02/22-rdf-syntax-ns#"
   xmlns:svg="http://www.w3.org/2000/svg"
   xmlns="http://www.w3.org/2000/svg"
   xmlns:sodipodi="http://sodipodi.sourceforge.net/DTD/sodipodi-0.dtd"
   xmlns:inkscape="http://www.inkscape.org/namespaces/inkscape"
   width="210mm"
   height="297mm"
   viewBox="0 0 210 297"
   version="1.1"
   id="svg3784"
   sodipodi:docname="logojavier.svg"
   inkscape:version="0.92.4 (5da689c313, 2019-01-14)">
  <defs
     id="defs3778">
    <inkscape:perspective
       sodipodi:type="inkscape:persp3d"
       inkscape:vp_x="0 : 148.5 : 1"
       inkscape:vp_y="0 : 1000 : 0"
       inkscape:vp_z="210 : 148.5 : 1"
       inkscape:persp3d-origin="105 : 99 : 1"
       id="perspective3890" />
  </defs>
  <sodipodi:namedview
     id="base"
     pagecolor="#ffffff"
     bordercolor="#666666"
     borderopacity="1.0"
     inkscape:pageopacity="0.0"
     inkscape:pageshadow="2"
     inkscape:zoom="0.35"
     inkscape:cx="400"
     inkscape:cy="560"
     inkscape:document-units="mm"
     inkscape:current-layer="layer1"
     showgrid="false"
     inkscape:window-width="1920"
     inkscape:window-height="1001"
     inkscape:window-x="-9"
     inkscape:window-y="-9"
     inkscape:window-maximized="1" />
  <metadata
     id="metadata3781">
    <rdf:RDF>
      <cc:Work
         rdf:about="">
        <dc:format>image/svg+xml</dc:format>
        <dc:type
           rdf:resource="http://purl.org/dc/dcmitype/StillImage" />
        <dc:title></dc:title>
      </cc:Work>
    </rdf:RDF>
  </metadata>
  <g
     inkscape:label="Capa 1"
     inkscape:groupmode="layer"
     id="layer1">
    <g
       sodipodi:type="inkscape:box3d"
       id="g3892"
       inkscape:perspectiveID="#perspective3890"
       inkscape:corner0="1.7234832 : 0.13094513 : 0 : 1"
       inkscape:corner7="-0.21526757 : 0.00059435552 : 0.25 : 1">
      <path
         sodipodi:type="inkscape:box3dside"
         id="path3894"
         style="fill:#353564;fill-rule:evenodd;stroke:none;stroke-linejoin:round"
         inkscape:box3dsidetype="6"
         d="m 38.553571,118.59523 v 47.86179 l 14.414612,-1.50977 v -43.83773 z"
         points="38.553571,166.45702 52.968183,164.94725 52.968183,121.10952 38.553571,118.59523 " />
      <path
         sodipodi:type="inkscape:box3dside"
         id="path3902"
         style="fill:#afafde;fill-rule:evenodd;stroke:none;stroke-linejoin:round"
         inkscape:box3dsidetype="13"
         d="m 38.553571,166.45702 95.249999,44.3644 18.4097,-15.05738 -99.245087,-30.81679 z"
         points="133.80357,210.82142 152.21327,195.76404 52.968183,164.94725 38.553571,166.45702 " />
      <path
         sodipodi:type="inkscape:box3dside"
         id="path3904"
         style="fill:#e9e9ff;fill-rule:evenodd;stroke:none;stroke-linejoin:round"
         inkscape:box3dsidetype="11"
         d="M 52.968183,121.10952 152.21327,69.788703 V 195.76404 L 52.968183,164.94725 Z"
         points="152.21327,69.788703 152.21327,195.76404 52.968183,164.94725 52.968183,121.10952 " />
      <path
         sodipodi:type="inkscape:box3dside"
         id="path3896"
         style="fill:#4d4d9f;fill-rule:evenodd;stroke:none;stroke-linejoin:round"
         inkscape:box3dsidetype="5"
         d="M 38.553571,118.59523 133.80357,44.712865 152.21327,69.788703 52.968183,121.10952 Z"
         points="133.80357,44.712865 152.21327,69.788703 52.968183,121.10952 38.553571,118.59523 " />
      <path
         sodipodi:type="inkscape:box3dside"
         id="path3900"
         style="fill:#d7d7ff;fill-rule:evenodd;stroke:none;stroke-linejoin:round"
         inkscape:box3dsidetype="14"
         d="M 133.80357,44.712865 V 210.82142 l 18.4097,-15.05738 V 69.788703 Z"
         points="133.80357,210.82142 152.21327,195.76404 152.21327,69.788703 133.80357,44.712865 " />
      <path
         sodipodi:type="inkscape:box3dside"
         id="path3898"
         style="fill:#8686bf;fill-rule:evenodd;stroke:none;stroke-linejoin:round"
         inkscape:box3dsidetype="3"
         d="M 38.553571,118.59523 133.80357,44.712865 V 210.82142 l -95.249999,-44.3644 z"
         points="133.80357,44.712865 133.80357,210.82142 38.553571,166.45702 38.553571,118.59523 " />
    </g>
    <text
       xml:space="preserve"
       style="font-style:normal;font-weight:normal;font-size:10.58333302px;line-height:1.25;font-family:sans-serif;letter-spacing:0px;word-spacing:0px;fill:#000000;fill-opacity:1;stroke:none;stroke-width:0.26458332"
       x="52.968185"
       y="121.10951"
       id="text3908"><tspan
         sodipodi:role="line"
         id="tspan3906"
         x="52.968185"
         y="121.10951"
         style="stroke-width:0.26458332;font-size:70.55555556px;-inkscape-font-specification:'Snap ITC';font-family:'Snap ITC';font-weight:normal;font-style:normal;font-stretch:normal;font-variant:normal">JI</tspan></text>
    <flowRoot
       xml:space="preserve"
       id="flowRoot3910"
       style="fill:black;fill-opacity:1;stroke:none;font-family:sans-serif;font-style:normal;font-weight:normal;font-size:40px;line-height:1.25;letter-spacing:0px;word-spacing:0px"><flowRegion
         id="flowRegion3912"><rect
           id="rect3914"
           width="8.5714283"
           height="85.714287"
           x="468.57144"
           y="308.23395" /></flowRegion><flowPara
         id="flowPara3916"></flowPara></flowRoot>    <path
       sodipodi:type="spiral"
       style="fill:none;fill-rule:evenodd;stroke:#000000;stroke-width:0.26458332"
       id="path3934"
       sodipodi:cx="103.56547"
       sodipodi:cy="143.54166"
       sodipodi:expansion="1"
       sodipodi:revolution="3"
       sodipodi:radius="73.76252"
       sodipodi:argument="-17.701147"
       sodipodi:t0="0"
       d="m 103.56547,143.54166 c 1.51609,3.3733 -3.799155,3.70793 -5.606647,2.51984 -4.898192,-3.21963 -3.155503,-10.39811 0.566953,-13.73313 6.658594,-5.96558 16.957344,-3.04882 21.859624,3.65375 7.19429,9.83629 2.97419,23.61829 -6.74055,29.98612 -12.94822,8.48731 -30.317002,2.91532 -38.112607,-9.82735 -9.809973,-16.03536 -2.86505,-37.03413 12.914148,-46.2391 19.110719,-11.148459 43.761699,-2.81983 54.365589,16.00094 12.49632,22.17963 2.77779,50.49581 -19.08774,62.49209 C 98.479617,202.245 66.489975,191.13268 53.105663,166.22027 37.897557,137.91321 50.406232,102.2445 78.367006,87.475207 c 31.367764,-16.56891 70.719514,-2.662068 86.871554,28.348143 17.93183,34.42721 2.62551,77.46493 -31.43494,94.99805" />
    <path
       sodipodi:type="star"
       id="path3936"
       sodipodi:sides="5"
       sodipodi:cx="32.505951"
       sodipodi:cy="144.29761"
       sodipodi:r1="22.969828"
       sodipodi:r2="11.484913"
       sodipodi:arg1="1.3043702"
       sodipodi:arg2="1.9326887"
       inkscape:flatsided="false"
       inkscape:rounded="0"
       inkscape:randomized="0"
       d="m 38.55357,166.45701 -10.113791,-11.41838 -15.139859,1.85824 7.734199,-13.14727 -6.445767,-13.82463 14.893789,3.29294 11.156156,-10.40234 1.470668,15.18241 13.340651,7.39563 -13.984866,6.09031 z"
       inkscape:transform-center-x="-1.8688164"
       inkscape:transform-center-y="0.33868264"
       style="stroke-width:0.26458332" />
    <path
       sodipodi:type="star"
       id="path3938"
       sodipodi:sides="5"
       sodipodi:cx="105.07738"
       sodipodi:cy="181.33926"
       sodipodi:r1="24.681584"
       sodipodi:r2="12.05975"
       sodipodi:arg1="0.69865985"
       sodipodi:arg2="1.3269784"
       inkscape:flatsided="false"
       inkscape:rounded="0"
       inkscape:randomized="0"
       d="m 123.97619,197.21426 -15.98748,-4.17193 -12.169302,11.17641 -0.972652,-16.49419 -14.389926,-8.11999 15.386339,-6.02203 3.275842,-16.19485 10.481929,12.77237 16.41451,-1.88898 -8.90815,13.91579 z"
       inkscape:transform-center-x="-0.49451404"
       inkscape:transform-center-y="-1.8278226"
       style="stroke-width:0.26458332" />
    <path
       sodipodi:type="star"
       id="path3940"
       sodipodi:sides="5"
       sodipodi:cx="148.16666"
       sodipodi:cy="140.51784"
       sodipodi:r1="17.534185"
       sodipodi:r2="8.5674305"
       sodipodi:arg1="1.7004989"
       sodipodi:arg2="2.3288174"
       inkscape:flatsided="false"
       inkscape:rounded="0"
       inkscape:randomized="0"
       d="m 145.8988,157.90474 -3.62213,-11.16525 -11.34675,-3.00566 9.49949,-6.89511 -0.64778,-11.7202 9.49313,6.90385 10.9464,-4.23782 -3.63241,11.16191 7.41303,9.10109 -11.73809,-0.005 z"
       inkscape:transform-center-x="0.70080826"
       inkscape:transform-center-y="0.99379339"
       style="stroke-width:0.26458332" />
  </g>
</svg>
